<svg width="4" height="6" viewBox="0 0 4 6" fill="none" xmlns="http://www.w3.org/2000/svg">
<path d="M0.173543 0.134647C0.125702 0.176007 0.08767 0.225497 0.0616986 0.280184C0.0357272 0.334871 0.0223452 0.393644 0.0223452 0.453021C0.0223452 0.512397 0.0357272 0.571169 0.0616986 0.625856C0.08767 0.680543 0.125702 0.730033 0.173543 0.771393L2.72088 3L0.151198 5.22861C0.103357 5.26997 0.0653248 5.31946 0.0393534 5.37414C0.0133821 5.42883 6.11027e-09 5.4876 5.40221e-09 5.54698C4.69415e-09 5.60636 0.0133821 5.66513 0.0393534 5.71982C0.0653248 5.7745 0.103357 5.82399 0.151198 5.86535C0.249455 5.95163 0.3819 6 0.519892 6C0.657883 6 0.790329 5.95163 0.888586 5.86535L3.83367 3.34225C3.93031 3.25346 3.98884 3.13725 3.99902 3.01393C4.00368 2.94793 3.99165 2.88185 3.9638 2.82054C3.93596 2.75924 3.89301 2.70429 3.83814 2.65974L0.910931 0.134647C0.812674 0.0483689 0.680228 8.11164e-09 0.542237 6.46611e-09C0.404245 4.82058e-09 0.2718 0.0483689 0.173543 0.134647Z" fill="#9791A0"/>
</svg>
