<svg width="8" height="13" viewBox="0 0 8 13" fill="none" xmlns="http://www.w3.org/2000/svg">
<path d="M7.65291 12.7083C7.74859 12.6187 7.82466 12.5114 7.8766 12.3929C7.92855 12.2744 7.95531 12.1471 7.95531 12.0185C7.95531 11.8898 7.92855 11.7625 7.8766 11.644C7.82466 11.5255 7.74859 11.4183 7.65291 11.3286L2.55823 6.5L7.6976 1.67135C7.79329 1.58174 7.86935 1.47451 7.92129 1.35602C7.97324 1.23753 8 1.11019 8 0.981544C8 0.852895 7.97324 0.725554 7.92129 0.607065C7.86935 0.488576 7.79329 0.381349 7.6976 0.291736C7.50109 0.1048 7.2362 -3.33868e-08 6.96022 -4.54504e-08C6.68423 -5.7514e-08 6.41934 0.1048 6.22283 0.291736L0.332664 5.75846C0.13938 5.95084 0.0223248 6.20263 0.00195761 6.46982C-0.00736933 6.61281 0.0167004 6.756 0.0723912 6.88882C0.128082 7.02164 0.213973 7.14071 0.323727 7.23723L6.17814 12.7083C6.37465 12.8952 6.63954 13 6.91553 13C7.19151 13 7.4564 12.8952 7.65291 12.7083Z" fill="#9791A0"/>
</svg>
