<svg width="8" height="13" viewBox="0 0 8 13" fill="none" xmlns="http://www.w3.org/2000/svg">
<path d="M0.347085 0.291736C0.251404 0.381349 0.175339 0.488576 0.123396 0.607065C0.0714538 0.725554 0.0446896 0.852896 0.0446897 0.981544C0.0446897 1.11019 0.0714538 1.23753 0.123397 1.35602C0.175339 1.47451 0.251404 1.58174 0.347085 1.67135L5.44176 6.5L0.302395 11.3286C0.206714 11.4183 0.13065 11.5255 0.0787068 11.644C0.026764 11.7625 -4.85281e-08 11.8898 -4.29046e-08 12.0185C-3.72812e-08 12.1471 0.0267641 12.2744 0.0787068 12.3929C0.13065 12.5114 0.206714 12.6187 0.302395 12.7083C0.498909 12.8952 0.763801 13 1.03978 13C1.31577 13 1.58066 12.8952 1.77717 12.7083L7.66734 7.24154C7.86062 7.04916 7.97767 6.79737 7.99804 6.53018C8.00737 6.38719 7.9833 6.244 7.92761 6.11118C7.87192 5.97836 7.78603 5.85929 7.67627 5.76277L1.82186 0.291736C1.62535 0.104799 1.36046 -5.94674e-08 1.08447 -4.74038e-08C0.80849 -3.53403e-08 0.543599 0.104799 0.347085 0.291736Z" fill="#9791A0"/>
</svg>
