<svg width="32" height="27" viewBox="0 0 32 27" fill="none" xmlns="http://www.w3.org/2000/svg">
<path d="M0 1.03845H4.48579L10.6028 16.4077H26.9147L30.5849 5.1923H13.8652" stroke="white" stroke-width="2" stroke-miterlimit="10"/>
<path d="M28.5459 9.34616H19.1665" stroke="white" stroke-width="2" stroke-miterlimit="10"/>
<path d="M10.8066 23.0538H19.1665" stroke="white" stroke-width="2" stroke-miterlimit="10"/>
<path d="M10.6025 16.4077L9.19971 20.9769" stroke="white" stroke-width="2" stroke-miterlimit="10"/>
<path d="M22.021 25.9615C23.3723 25.9615 24.4678 24.8457 24.4678 23.4692C24.4678 22.0928 23.3723 20.9769 22.021 20.9769C20.6697 20.9769 19.5742 22.0928 19.5742 23.4692C19.5742 24.8457 20.6697 25.9615 22.021 25.9615Z" stroke="white" stroke-width="2" stroke-miterlimit="10"/>
<path d="M8.15578 25.9615C9.50711 25.9615 10.6026 24.8457 10.6026 23.4692C10.6026 22.0928 9.50711 20.9769 8.15578 20.9769C6.80445 20.9769 5.70898 22.0928 5.70898 23.4692C5.70898 24.8457 6.80445 25.9615 8.15578 25.9615Z" stroke="white" stroke-width="2" stroke-miterlimit="10"/>
</svg>
