<svg width="26" height="25" viewBox="0 0 26 25" fill="none" xmlns="http://www.w3.org/2000/svg">
<path fill-rule="evenodd" clip-rule="evenodd" d="M17.2196 0H7.85983C3.56085 0 0.078125 3.48272 0.078125 7.7817V17.1415C0.078125 21.4405 3.56085 24.9232 7.85983 24.9232H17.2196C21.5186 24.9232 25.0013 21.4405 25.0013 17.1415V7.7817C25.0013 3.48272 21.5186 0 17.2196 0ZM19.2875 4.95199C18.8522 4.95199 18.4712 5.33291 18.4168 5.76825C18.4168 6.20359 18.7977 6.58451 19.2331 6.63893C19.6684 6.63893 20.0493 6.25801 20.0493 5.82267C20.1038 5.27849 19.7228 4.95199 19.2875 4.95199ZM6.28172 12.516C6.28172 9.03331 9.11143 6.25802 12.5397 6.25802C16.0224 6.25802 18.7977 9.03331 18.7977 12.516C18.7977 15.9988 15.968 18.774 12.5397 18.774C9.05701 18.774 6.28172 15.9443 6.28172 12.516ZM8.62167 12.4616C8.62167 14.6383 10.363 16.3797 12.5397 16.3797C14.7164 16.3797 16.4578 14.6383 16.4578 12.4616C16.4578 10.2849 14.7164 8.54355 12.5397 8.54355C10.363 8.54355 8.62167 10.2849 8.62167 12.4616Z" fill="#9791A0"/>
</svg>
