<svg width="230" height="214" viewBox="0 0 230 214" fill="none" xmlns="http://www.w3.org/2000/svg">
<g clip-path="url(#clip0)">
<path d="M89.7612 165.463C84.8813 162.562 77.3851 160.236 73.3896 159.116C79.0088 159.439 86.2333 159.684 90.6301 159.184C100.145 158.102 100.794 153.556 99.9292 150.957C99.0643 148.358 103.605 146.627 102.957 139.05C102.308 131.472 89.3326 131.472 86.7378 132.338C84.143 133.204 75.2763 134.288 74.8438 131.905C74.4113 129.522 76.7919 122.595 71.6003 126.06C66.4086 129.525 62.0313 139.455 59.4813 144.027C56.3098 149.727 54.1474 144.965 53.787 143.81C53.7218 143.601 53.6808 143.47 53.6555 143.393C53.3156 142.248 52.9143 141.076 52.4399 139.889C49.6016 132.786 48.0256 131.787 52.4399 122.473C56.8543 113.16 61.0592 98.2706 61.6933 88.2736C62.3274 78.2766 60.4076 75.9626 63.4281 68.6491C69.1038 54.9164 73.8337 52.1811 75.8841 46.4454C79.1199 37.3904 77.4085 27.2939 75.8841 22.2427C74.3597 17.1915 70.0009 16.5119 67.371 19.9316C64.7411 23.3514 63.5342 21.8253 61.6952 18.9321C59.8563 16.0389 60.1709 8.77714 56.9653 4.41051C54.125 0.541192 47.4528 -2.58702 41.7245 3.14772C35.9962 8.88246 40.3131 16.9468 42.7638 20.0497C44.3164 22.0155 45.5749 23.2247 48.9246 25.9297C50.9126 27.5347 52.3406 28.8765 50.9701 29.1915C49.5996 29.5065 47.9739 29.0335 47.9739 29.0335C47.9739 29.0335 44.3476 27.8234 42.1404 31.2958C41.4586 32.3616 40.732 33.9794 43.1388 39.5035C45.2934 44.4493 46.0824 46.9749 46.2392 51.3942C46.3054 53.2528 46.3366 55.95 41.8774 59.8652C37.5277 63.6968 34.1265 68.4878 31.9422 73.8602C30.2075 78.1215 28.9987 84.5408 28.8419 89.434C28.685 94.3272 30.6808 106.954 33.5172 115.372C36.3536 123.791 37.6696 131.42 38.2472 133.997C38.8248 136.575 39.456 140.995 39.9294 149.361C40.0453 151.408 40.1768 153.153 40.3287 154.684C40.3287 154.684 40.6648 159.038 37.4933 159.755C34.3218 160.471 23.9415 157.59 17.4534 156.579C10.9653 155.569 3.0376 157.59 0.730101 160.62C-1.5774 163.651 2.02753 167.116 4.47821 168.559C6.92889 170.002 2.89247 171.874 1.7392 173.754C0.585941 175.635 -1.28811 179.239 1.59505 183.28C4.47821 187.322 12.4069 188.476 17.8859 187.321C18.582 187.175 19.2671 187.015 19.9411 186.842C18.6495 185.79 17.9443 184.456 18.0339 182.941C18.2716 178.921 23.8411 173.888 28.7035 170.049C33.566 166.21 43.3638 163.012 46.1622 162.414C47.8688 162.048 49.4594 163.18 49.8149 164.787C50.1704 166.394 49.8197 173.901 47.1314 182.055C45.7814 186.15 43.7642 187.468 43.5479 185.519C43.4148 184.348 43.3786 183.168 43.4398 181.991C43.4398 181.991 40.3044 191.364 37.7495 193.391C35.1945 195.417 33.5611 192.922 33.3117 191.869C33.0624 190.817 32.6017 189.139 30.1948 189.282C28.8391 189.369 27.4784 189.328 26.1301 189.163C25.7827 190.262 25.5081 191.384 25.308 192.52C23.5061 203.128 29.0328 207.23 36.7696 205.294C41.0943 204.212 41.5268 206.882 42.3216 210.129C43.1164 213.376 46.358 211.428 47.1509 210.85C49.8383 208.893 52.2344 210.142 55.8013 212.005C65.7492 217.2 71.0675 211.276 71.1551 205.082C71.1756 203.639 71.1249 202.254 71.0178 200.937C74.1279 203.827 77.3802 205.079 81.3192 203.783C86.579 202.051 85.4277 195.483 86.3648 192.959C87.3018 190.434 92.4924 190.577 97.1055 190.144C101.719 189.711 97.8984 182.35 96.8133 180.618C95.7282 178.887 95.8042 176.718 98.1107 176.718C100.417 176.718 103.084 176.718 101.859 174.986C100.633 173.254 96.6818 169.575 89.7612 165.463ZM74.6636 195.218C70.6613 195.988 67.8453 194.184 65.794 193.517C64.333 193.044 63.5742 194.633 62.7122 194.56C60.8615 194.401 59.4881 191.947 59.4881 183.576C59.4881 174.483 59.5339 169.206 64.2735 171.62C67.4547 173.241 73.1899 178.794 76.2075 182.001C80.6072 186.68 79.9176 194.206 74.6617 195.221L74.6636 195.218Z" fill="#D8AEAE"/>
<path d="M73.8516 71.1493C74.5659 71.1493 75.087 71.3443 75.415 71.7344C75.7723 72.1798 76.0672 72.6719 76.2916 73.1971C76.6812 74.1111 77.0884 74.7797 77.513 75.2029C77.8993 75.6028 78.3634 75.9191 78.8767 76.1322C79.4096 76.3387 79.9685 76.4699 80.5374 76.5223C81.1556 76.5873 81.9212 76.6848 82.8342 76.8148C84.007 77.0099 85.1307 77.2374 86.2054 77.4974C87.2147 77.7331 88.1853 78.1121 89.0876 78.6227C89.9007 79.0825 90.6017 79.7173 91.1399 80.4813C91.6593 81.2315 91.9191 82.1933 91.9191 83.3667C91.9191 85.2591 91.398 86.9549 90.3557 88.454C89.3135 89.9531 88.2385 91.3553 87.1307 92.6607C87.0581 92.815 87.0088 92.9794 86.9846 93.1483C86.955 93.3092 86.9387 93.4722 86.9359 93.6358C86.9359 94.2859 87.506 94.8239 88.6463 95.2497C89.8262 95.6837 91.0572 95.9633 92.3087 96.0815C94.8207 96.2251 97.3219 96.5182 99.7991 96.9591C102.393 97.4141 104.761 98.1315 106.902 99.1112C109.043 100.091 110.794 101.346 112.156 102.877C113.519 104.41 114.201 106.318 114.201 108.6C114.201 110.623 113.422 112.497 111.864 114.225C110.305 115.952 108.304 117.517 105.861 118.92C103.422 120.323 100.672 121.562 97.6133 122.637C94.5542 123.712 91.5447 124.658 88.5849 125.474C85.6245 126.288 82.843 126.973 80.2404 127.528C77.6377 128.084 75.5569 128.53 73.9977 128.866C72.6341 129.191 71.6259 129.501 70.9733 129.796C70.3207 130.09 69.8337 130.498 69.5123 131.018C69.1876 131.538 68.9279 132.223 68.7331 133.073C68.5382 133.923 68.246 135.031 67.8564 136.399C67.509 137.46 67.2164 138.537 66.9798 139.628C66.7365 140.738 66.4265 141.832 66.0515 142.905C65.7501 143.8 65.3406 144.654 64.832 145.448C64.3775 146.133 63.8255 146.475 63.1762 146.475C62.6567 146.475 62.3969 146.28 62.3969 145.89C62.4036 145.723 62.4365 145.559 62.4943 145.403C62.5513 145.246 62.5842 145.081 62.5917 144.915C62.8903 142.825 63.297 140.751 63.8103 138.703C64.3203 136.66 64.6958 134.585 64.9343 132.492C65.0049 132.01 64.9374 131.518 64.7395 131.073C64.5447 130.648 64.1551 130.468 63.5706 130.535C62.0089 130.665 60.2196 130.892 58.2027 131.217C56.1858 131.542 54.1199 131.965 52.0049 132.485C49.8919 133.005 47.7935 133.608 45.7097 134.295C43.6259 134.981 41.7882 135.78 40.1966 136.692C38.6024 137.602 37.3011 138.58 36.2927 139.627C35.2842 140.673 34.7751 141.815 34.7654 143.052C34.7654 144.157 35.0095 145.07 35.4979 145.791C35.9857 146.507 36.6394 147.094 37.4031 147.503C38.2164 147.938 39.089 148.251 39.9931 148.432C40.8766 148.621 41.777 148.719 42.6804 148.725C43.6545 148.725 44.5665 148.692 45.4165 148.627C46.3101 148.553 47.1941 148.39 48.0552 148.14C48.3282 148.074 48.613 148.074 48.886 148.14C49.1789 148.205 49.3253 148.4 49.3253 148.725V148.92C48.6874 149.335 47.9973 149.662 47.273 149.895C46.5422 150.143 45.7899 150.324 45.0259 150.433C44.3116 150.531 43.6275 150.596 42.9736 150.628C42.3197 150.661 41.8652 150.677 41.61 150.677C39.8718 150.685 38.1371 150.522 36.431 150.189C34.8037 149.864 33.3706 149.391 32.1316 148.771C30.8926 148.15 29.9153 147.383 29.1997 146.471C28.4933 145.582 28.1148 144.477 28.1283 143.341C28.1283 141.384 29.1705 139.607 31.255 138.009C33.3394 136.411 36.0592 134.96 39.4145 133.656C42.7704 132.351 46.5324 131.226 50.7007 130.281C54.8689 129.337 59.0056 128.505 63.1109 127.787C63.5005 127.721 63.9077 127.641 64.3324 127.542C64.757 127.444 65.0317 127.297 65.1632 127.102C65.6178 126.452 66.0574 125.148 66.482 123.189C66.9067 121.23 67.2963 119.176 67.6509 117.026C68.008 114.874 68.285 112.852 68.4818 110.961C68.6785 109.07 68.7759 107.863 68.774 107.341C68.774 106.561 68.6116 105.893 68.2869 105.335C67.9623 104.778 67.6204 104.257 67.2613 103.77C66.9022 103.281 66.5603 102.794 66.2356 102.308C65.9109 101.821 65.7486 101.218 65.7486 100.498C65.7486 99.9778 66.1058 99.4723 66.82 98.9815C67.5343 98.4907 68.1207 98.1156 68.5792 97.8562C68.709 97.0761 68.823 96.424 68.921 95.9001C69.0131 95.4165 69.0781 94.9282 69.1159 94.4374C69.1477 93.9823 69.1801 93.5422 69.2133 93.1171C69.2464 92.6919 69.2626 92.219 69.262 91.6983C69.262 89.0251 69.1646 86.4001 68.9697 83.8231C68.7749 81.2462 68.6775 78.5886 68.6775 75.8504V73.203C68.6775 72.7476 68.8879 72.3887 69.3126 72.1303C69.7856 71.8491 70.2954 71.6351 70.8272 71.4945C71.3856 71.3375 71.9589 71.2395 72.5377 71.202C73.087 71.1669 73.525 71.1493 73.8516 71.1493ZM75.1179 106.856C74.9231 107.701 74.6461 108.875 74.287 110.378C73.9279 111.881 73.5708 113.495 73.2156 115.22C72.8565 116.949 72.4993 118.628 72.1441 120.259C71.7889 121.889 71.4795 123.291 71.2159 124.466C71.1509 124.596 71.0535 124.938 70.9237 125.492C70.8162 125.892 70.7509 126.302 70.7289 126.715C72.9425 126.455 75.4179 126.048 78.1549 125.492C80.892 124.937 83.6768 124.269 86.5093 123.486C89.3431 122.706 92.1116 121.81 94.8149 120.796C97.5182 119.783 99.9124 118.706 101.997 117.567C104.082 116.427 105.76 115.221 107.03 113.948C108.301 112.675 108.936 111.354 108.936 109.986C108.936 108.486 108.268 107.133 106.932 105.926C105.596 104.72 103.886 103.709 101.802 102.894C99.7159 102.079 97.4033 101.46 94.8636 101.035C92.4099 100.619 89.9261 100.406 87.4375 100.399C86.2446 100.406 85.0532 100.487 83.8706 100.644C82.6009 100.808 81.3548 101.12 80.1576 101.573C78.9819 102.012 77.9032 102.677 76.9822 103.529C76.0672 104.378 75.4474 105.487 75.1228 106.856H75.1179ZM83.3261 82.5944C80.7196 82.5944 79.0095 83.2302 78.1958 84.5018C77.3822 85.7734 76.9751 87.3875 76.9744 89.3443C76.9744 90.0626 77.0069 90.8125 77.0718 91.5939C77.1367 92.3753 77.1692 93.1252 77.1692 93.8435L77.7536 94.4286H77.851C78.1108 94.4286 78.6972 94.1361 79.6101 93.551C80.5232 92.9659 81.4352 92.1507 82.3462 91.1054C82.541 90.8453 82.8332 90.4702 83.2229 89.9801C83.6502 89.436 84.0407 88.864 84.3917 88.2677C84.7719 87.6366 85.1144 86.9834 85.4174 86.3116C85.6941 85.7304 85.8438 85.0968 85.8567 84.453C85.8615 84.2079 85.8164 83.9644 85.7239 83.7373C85.6314 83.5103 85.4937 83.3046 85.319 83.1327C84.9703 82.7732 84.3076 82.5935 83.331 82.5935L83.3261 82.5944Z" fill="#D8AEAE"/>
<path d="M115.382 117.675C115.382 116.626 115.528 115.349 115.821 113.842C116.114 112.335 116.624 110.878 117.336 109.518C118.051 108.143 119.071 106.95 120.316 106.03C121.586 105.081 123.199 104.606 125.153 104.605C127.433 104.605 129.126 105.078 130.235 106.024C131.343 106.97 131.897 108.127 131.896 109.496C131.896 110.866 131.716 111.909 131.358 112.627C131.033 113.309 130.503 113.873 129.843 114.24C129.194 114.6 128.396 114.812 127.449 114.876C126.502 114.94 125.476 114.973 124.371 114.974H121.831C121.113 114.974 120.592 115.171 120.268 115.566C119.943 115.96 119.781 116.684 119.781 117.736C119.781 118.724 119.927 119.546 120.22 120.203C120.513 120.86 120.985 121.189 121.637 121.189C122.416 121.189 123.361 120.877 124.471 120.252C125.58 119.627 126.623 119.315 127.597 119.315C127.893 119.304 128.188 119.337 128.474 119.412C129.025 119.563 129.528 119.852 129.935 120.252C130.158 120.459 130.334 120.711 130.451 120.992C130.569 121.273 130.625 121.575 130.617 121.879C130.617 122.208 130.584 122.437 130.519 122.569C130.454 122.768 130.275 122.965 129.982 123.162C129.663 123.369 129.318 123.533 128.956 123.649L127.885 124.242C126.734 125.087 125.444 125.721 124.073 126.116C122.705 126.511 121.597 126.708 120.751 126.708C120.294 126.708 119.971 126.675 119.777 126.611C118.473 126.216 117.414 125.152 116.601 123.417C115.788 121.683 115.382 119.769 115.382 117.675ZM127.499 110.279C127.499 110.019 127.337 109.612 127.012 109.057C126.687 108.501 126.068 108.224 125.155 108.225C123.787 108.225 122.745 108.665 122.029 109.545C121.31 110.433 120.839 111.497 120.665 112.627C121.509 112.627 122.34 112.61 123.157 112.578C123.895 112.554 124.63 112.473 125.355 112.333C126.004 112.203 126.525 111.975 126.918 111.65C127.311 111.325 127.504 110.868 127.498 110.279H127.499Z" fill="#D8AEAE"/>
<path d="M141.862 107.54C141.602 108.65 141.31 109.726 140.985 110.769C140.65 111.879 140.486 113.033 140.498 114.193C140.498 114.454 140.514 114.943 140.547 115.655C140.58 116.367 140.644 117.118 140.742 117.905C140.824 118.627 141.005 119.335 141.28 120.008C141.539 120.629 141.896 120.939 142.351 120.938C142.806 120.936 143.228 120.724 143.617 120.302C144.017 119.868 144.392 119.412 144.741 118.937C145.104 118.444 145.513 117.987 145.963 117.571C146.381 117.163 146.942 116.935 147.526 116.936C148.046 116.936 148.648 117.115 149.334 117.474C150.02 117.833 150.361 118.436 150.36 119.284C150.36 119.479 150.245 119.709 150.018 119.966C149.764 120.25 149.486 120.511 149.187 120.746L148.31 121.624C147.38 122.364 146.671 123.345 146.258 124.461L145.284 126.71C144.894 127.36 144.389 127.735 143.769 127.836C143.074 127.939 142.371 127.988 141.668 127.982C140.924 127.997 140.203 127.717 139.665 127.202C139.089 126.65 138.61 126.005 138.247 125.294C137.854 124.541 137.574 123.733 137.416 122.897C137.261 122.124 137.179 121.338 137.172 120.549V116.049C137.172 115.204 137.188 114.373 137.221 113.555C137.253 112.737 137.302 112.036 137.367 111.451C136.986 111.135 136.628 110.792 136.295 110.425C135.969 110.067 135.808 109.724 135.808 109.398C135.808 109.203 135.97 108.894 136.295 108.469C136.508 108.179 136.735 107.902 136.977 107.637C137.294 107.258 137.573 106.848 137.808 106.414C138.021 106.022 138.201 105.613 138.346 105.191C138.541 104.281 138.8 102.683 139.125 100.397C139.45 98.1117 139.839 95.5191 140.294 92.6198C140.748 89.7184 141.302 86.7183 141.955 83.6193C142.542 80.7581 143.292 77.9327 144.202 75.1571C144.396 74.507 144.624 73.6593 144.883 72.614C145.139 71.5821 145.464 70.5689 145.858 69.5813C146.2 68.6964 146.624 67.845 147.124 67.0382C147.578 66.3231 148.065 65.9656 148.585 65.9656C149.624 65.9656 150.487 66.6342 151.175 67.9714C151.897 69.409 152.47 70.917 152.885 72.4716C153.314 74.0131 153.64 75.5817 153.859 77.1669C154.054 78.6341 154.151 79.4656 154.151 79.6612C154.14 82.2132 153.762 84.7502 153.027 87.1941C152.266 89.7682 151.285 92.2721 150.096 94.6782C148.909 97.0919 147.57 99.4281 146.089 101.673C144.639 103.89 143.23 105.845 141.862 107.54ZM149.194 72.5184C148.999 72.5838 148.72 72.811 148.363 73.201C148.005 73.5911 147.825 73.9197 147.825 74.1761C146.587 77.959 145.528 82.1166 144.65 86.649C143.771 91.1814 143.071 95.9921 142.549 101.081C143.328 99.8458 144.207 98.362 145.187 96.6295C146.196 94.8369 147.11 92.992 147.923 91.1024C148.747 89.205 149.464 87.2628 150.07 85.2848C150.655 83.3619 150.947 81.5845 150.947 79.9528C150.936 79.3632 150.888 78.775 150.801 78.1917C150.703 77.4767 150.573 76.7593 150.411 76.0396C150.249 75.32 150.07 74.6351 149.873 73.985C149.68 73.3343 149.453 72.8454 149.194 72.5184Z" fill="#D8AEAE"/>
<path d="M161.796 126.03C160.659 126.024 159.532 125.808 158.473 125.394C157.386 124.983 156.378 124.387 155.493 123.633C154.611 122.882 153.882 121.968 153.343 120.942C152.789 119.902 152.512 118.728 152.512 117.42C152.512 115.986 152.739 114.372 153.194 112.578C153.649 110.784 154.365 109.267 155.344 108.029C155.765 107.552 156.241 107.127 156.761 106.761C157.379 106.306 157.982 106.078 158.569 106.078C158.768 106.068 158.968 106.102 159.153 106.176C159.412 106.241 159.543 106.535 159.543 107.054C159.536 107.684 159.438 108.31 159.251 108.912C159.056 109.562 158.893 110.05 158.764 110.375L157.887 112.918C157.63 113.741 157.499 114.599 157.497 115.461C157.497 117.158 158.051 118.495 159.158 119.472C160.265 120.449 161.666 121.297 163.36 122.015C163.88 122.21 164.139 122.633 164.139 123.283C164.139 124.063 163.928 124.715 163.504 125.239C163.081 125.763 162.511 126.026 161.796 126.03ZM158.083 96.7758C157.443 96.779 156.81 96.646 156.226 96.3857C155.642 96.1257 155.35 95.6381 155.35 94.923C155.347 94.212 155.55 93.5155 155.934 92.9172C156.326 92.2968 156.842 91.764 157.449 91.3521C158.084 90.9202 158.774 90.5749 159.501 90.3253C160.175 90.079 160.885 89.9471 161.602 89.9352C162.316 89.9352 162.821 90.0493 163.117 90.2775C163.412 90.5057 163.558 90.9786 163.556 91.6963C163.556 93.6531 163.166 94.99 162.387 95.707C161.608 96.4241 160.173 96.7816 158.082 96.7797L158.083 96.7758Z" fill="#D8AEAE"/>
<path d="M172.452 125.932C171.408 125.932 170.543 125.688 169.859 125.199C169.18 124.718 168.626 124.08 168.244 123.34C167.849 122.575 167.585 121.748 167.465 120.895C167.336 120.036 167.271 119.17 167.27 118.302C167.27 117.457 167.384 116.413 167.612 115.172C167.843 113.92 168.186 112.693 168.637 111.503C169.062 110.356 169.637 109.27 170.348 108.274C171.032 107.33 171.83 106.694 172.742 106.367C172.798 106.417 172.833 106.487 172.839 106.562C172.839 106.823 172.708 107.215 172.45 107.732C172.211 108.22 171.917 108.678 171.573 109.097C171.153 109.748 170.795 110.435 170.502 111.152C170.236 111.823 170.008 112.509 169.82 113.207C169.684 113.916 169.619 114.637 169.625 115.359C169.627 116.478 169.827 117.588 170.217 118.636C170.613 119.712 171.372 120.25 172.494 120.25C173.153 120.25 173.731 119.908 174.226 119.223C174.72 118.539 175.133 117.691 175.463 116.68C175.792 115.67 176.089 114.561 176.353 113.354C176.617 112.147 176.814 111.022 176.945 109.979C177.144 108.805 177.292 107.712 177.391 106.702C177.49 105.691 177.572 104.435 177.639 102.936C176.075 101.111 174.56 99.301 173.095 97.5061C171.653 95.7488 170.347 93.8849 169.186 91.9303C168.063 90.0449 167.146 88.0442 166.45 85.9626C165.759 83.864 165.412 81.6671 165.424 79.4575C165.424 78.4823 165.537 77.1454 165.763 75.4468C165.994 73.7343 166.385 72.0473 166.932 70.4083C167.481 68.7453 168.226 67.3106 169.165 66.104C170.105 64.8975 171.287 64.2942 172.712 64.2942C173.816 64.2942 174.819 64.865 175.723 66.0065C176.626 67.1481 177.419 68.5991 178.103 70.3595C178.835 72.2894 179.436 74.2666 179.902 76.2776C180.422 78.4632 180.826 80.6315 181.116 82.7826C181.406 84.9338 181.633 86.9065 181.798 88.7007C181.959 90.4949 182.073 91.9134 182.139 92.9562C182.139 93.2175 182.154 93.7363 182.187 94.5213C182.22 95.3063 182.236 96.218 182.236 97.2604C182.236 98.0405 182.22 98.8232 182.187 99.6085C182.155 100.394 182.106 101.079 182.041 101.663C182.499 102.381 182.843 102.887 183.074 103.179C183.259 103.408 183.422 103.654 183.561 103.913C183.663 104.115 183.778 104.31 183.906 104.498C184.037 104.693 184.234 105.02 184.497 105.473C186.262 108.664 187.824 111.964 189.172 115.353C190.604 118.941 191.804 122.617 192.764 126.358C193.755 130.208 194.527 134.111 195.078 138.048C195.634 142.002 195.913 145.99 195.915 149.983C195.915 151.157 195.882 152.592 195.817 154.287C195.748 155.981 195.564 157.668 195.266 159.336C194.995 160.924 194.519 162.47 193.849 163.934C193.199 165.336 192.32 166.363 191.21 167.015C190.88 167.194 190.513 167.294 190.138 167.308C189.812 167.308 189.651 167.144 189.651 166.82C189.651 166.625 189.813 166.43 190.138 166.235C191.311 165.321 192.093 163.886 192.484 161.931C192.871 159.994 193.131 158.033 193.263 156.062C193.393 153.896 193.41 151.724 193.312 149.557C193.214 147.371 193.101 145.431 192.97 143.736C192.473 137.425 191.268 131.19 189.378 125.149C187.509 119.215 184.869 113.443 181.457 107.834C181.197 108.943 180.887 110.509 180.527 112.529C180.164 114.568 179.657 116.578 179.01 118.546C178.357 120.535 177.509 122.264 176.467 123.73C175.425 125.197 174.086 125.931 172.452 125.932ZM177.722 90.0298C177.722 89.5748 177.673 88.8411 177.574 87.8289C177.476 86.8168 177.344 85.6755 177.179 84.4053C177.014 83.1337 176.816 81.8456 176.585 80.5408C176.372 79.3151 176.075 78.1056 175.694 76.9212C175.331 75.816 174.918 74.903 174.457 74.182C173.996 73.4611 173.502 73.1035 172.975 73.1094C172.605 73.0993 172.238 73.1836 171.909 73.3541C171.58 73.5247 171.3 73.776 171.095 74.0845C170.613 74.7819 170.261 75.5609 170.057 76.3839C169.834 77.2169 169.686 78.0679 169.612 78.927C169.545 79.7432 169.515 80.2814 169.515 80.5408C169.515 81.3209 169.746 82.495 170.207 84.063C170.715 85.7523 171.343 87.4032 172.087 89.003C172.875 90.7275 173.783 92.3944 174.804 93.9918C175.826 95.5903 176.865 96.8131 177.921 97.6602L178.018 95.8016C178.018 94.6965 177.986 93.539 177.921 92.3292C177.856 91.1194 177.79 90.3529 177.722 90.0298Z" fill="#D8AEAE"/>
<path d="M193.943 117.675C193.943 116.626 194.089 115.349 194.382 113.842C194.675 112.335 195.185 110.878 195.897 109.518C196.613 108.143 197.632 106.95 198.877 106.03C200.148 105.081 201.76 104.606 203.715 104.605C205.994 104.605 207.688 105.078 208.796 106.024C209.905 106.97 210.459 108.128 210.461 109.497C210.461 110.867 210.282 111.91 209.923 112.627C209.598 113.31 209.068 113.874 208.408 114.241C207.759 114.601 206.961 114.813 206.014 114.877C205.068 114.941 204.042 114.974 202.936 114.975H200.396C199.678 114.975 199.157 115.172 198.833 115.567C198.508 115.961 198.346 116.685 198.346 117.737C198.346 118.725 198.492 119.547 198.785 120.204C199.078 120.861 199.55 121.19 200.202 121.19C200.981 121.19 201.926 120.878 203.036 120.253C204.145 119.628 205.188 119.316 206.162 119.316C206.458 119.305 206.753 119.338 207.039 119.413C207.59 119.564 208.093 119.853 208.5 120.253C208.723 120.46 208.899 120.712 209.016 120.993C209.134 121.274 209.19 121.576 209.182 121.88C209.182 122.209 209.149 122.438 209.084 122.57C209.02 122.769 208.84 122.966 208.547 123.163C208.228 123.37 207.883 123.534 207.521 123.65L206.45 124.243C205.299 125.088 204.009 125.722 202.638 126.117C201.27 126.512 200.163 126.709 199.316 126.709C198.859 126.709 198.537 126.676 198.342 126.612C197.038 126.217 195.979 125.153 195.166 123.418C194.353 121.684 193.946 119.769 193.943 117.675ZM206.06 110.279C206.06 110.019 205.898 109.612 205.573 109.057C205.248 108.501 204.63 108.224 203.717 108.225C202.348 108.225 201.306 108.665 200.59 109.545C199.871 110.433 199.4 111.497 199.226 112.627C200.07 112.627 200.901 112.61 201.718 112.578C202.456 112.554 203.191 112.473 203.916 112.333C204.566 112.203 205.087 111.975 205.48 111.65C205.872 111.325 206.066 110.868 206.06 110.279Z" fill="#D8AEAE"/>
<path d="M226.091 106.856C224.396 107.441 222.963 108.207 221.792 109.155C220.62 110.103 219.741 111.39 219.154 113.018C219.081 113.271 219.048 113.534 219.057 113.798C219.057 114.516 219.381 115.135 220.031 115.656C220.659 116.163 221.348 116.589 222.083 116.924L223.842 117.704C225.01 118.188 226.124 118.795 227.165 119.514C228.139 120.198 228.626 121.193 228.626 122.498C228.626 123.867 227.99 125.058 226.72 126.069C225.51 127.05 224.088 127.737 222.567 128.074C222.242 128.139 221.9 128.205 221.541 128.27C221.17 128.335 220.794 128.368 220.417 128.367C219.573 128.237 219.151 127.912 219.151 127.392C219.151 127.067 219.395 126.627 219.884 126.072C220.372 125.516 220.909 125.239 221.496 125.24C222.015 125.24 222.552 124.963 223.108 124.408C223.663 123.853 223.94 123.315 223.939 122.794C223.934 122.652 223.882 122.515 223.792 122.404C223.695 122.274 223.386 122.112 222.864 121.917C222.38 121.645 221.874 121.416 221.35 121.234C220.795 121.039 220.192 120.811 219.542 120.551C218.891 120.291 218.207 119.982 217.489 119.622C216.774 119.266 216.116 118.806 215.535 118.257C214.95 117.703 214.457 117.059 214.074 116.35C213.685 115.634 213.49 114.787 213.49 113.806C213.49 112.241 214.011 110.741 215.053 109.306C216.121 107.846 217.406 106.559 218.865 105.49C220.315 104.409 221.89 103.506 223.555 102.8C225.182 102.116 226.55 101.773 227.658 101.773C228.567 101.773 229.186 102.131 229.515 102.846C229.843 103.561 230.006 104.148 230.002 104.607C230.002 105.325 229.79 105.863 229.367 106.221C228.985 106.557 228.535 106.807 228.048 106.954L226.091 106.856Z" fill="#D8AEAE"/>
</g>
<defs>
<clipPath id="clip0">
<rect width="230" height="214" fill="white"/>
</clipPath>
</defs>
</svg>
