<svg width="36" height="36" viewBox="0 0 36 36" fill="none" xmlns="http://www.w3.org/2000/svg">
<circle cx="18" cy="18" r="18" fill="#D8AEAE"/>
<circle cx="18" cy="18" r="18" fill="#D8AEAE"/>
<circle cx="18" cy="18" r="18" fill="#D8AEAE"/>
<circle cx="18" cy="18" r="18" fill="#D8AEAE"/>
<path d="M10.7031 23.4445H9.44336V13.0222H20.6665V23.4445H15.8566" stroke="white" stroke-miterlimit="10"/>
<path d="M7 11H17.3833" stroke="white" stroke-miterlimit="10"/>
<path d="M13.2604 25.0001C14.1037 25.0001 14.7873 24.3036 14.7873 23.4445C14.7873 22.5854 14.1037 21.889 13.2604 21.889C12.417 21.889 11.7334 22.5854 11.7334 23.4445C11.7334 24.3036 12.417 25.0001 13.2604 25.0001Z" stroke="white" stroke-miterlimit="10"/>
<path d="M24.4073 25.0001C25.2506 25.0001 25.9343 24.3036 25.9343 23.4445C25.9343 22.5854 25.2506 21.889 24.4073 21.889C23.564 21.889 22.8804 22.5854 22.8804 23.4445C22.8804 24.3036 23.564 25.0001 24.4073 25.0001Z" stroke="white" stroke-miterlimit="10"/>
<path d="M27.0412 23.4444H28.53V20.6444C28.53 19.7111 28.2246 18.8555 26.774 18.8555C25.3234 18.8555 25.3234 18.3111 25.3234 17.3777C25.3234 16.4444 25.1707 15.9777 24.2545 15.9777H21.6587" stroke="white" stroke-miterlimit="10"/>
<path d="M20.7427 23.4445H21.8115" stroke="white" stroke-miterlimit="10"/>
</svg>
