<svg width="36" height="36" viewBox="0 0 36 36" fill="none" xmlns="http://www.w3.org/2000/svg">
<circle cx="18" cy="18" r="18" fill="#D8AEAE"/>
<circle cx="18" cy="18" r="18" fill="#D8AEAE"/>
<circle cx="18" cy="18" r="18" fill="#D8AEAE"/>
<circle cx="18" cy="18" r="18" fill="#D8AEAE"/>
<path d="M25.0736 12.8754H11.4111V25.0448H25.0736V12.8754Z" stroke="white" stroke-miterlimit="10"/>
<path d="M10 28H20.7693" stroke="white" stroke-miterlimit="10"/>
<path d="M17.1699 12.8754V25.0448" stroke="white" stroke-miterlimit="10"/>
<path d="M19.2598 12.8754V20.6986" stroke="white" stroke-miterlimit="10"/>
<path d="M17.9901 12.7207C17.9901 12.7207 14.6934 12.2669 14.0102 10.2172C13.4621 8.57436 15.1354 7.50519 16.0355 8.23188C17.8695 9.70612 17.9901 12.7207 17.9901 12.7207Z" stroke="white" stroke-miterlimit="10"/>
<path d="M21.5212 11.2878C21.8339 11.0009 22.0744 10.6331 22.2204 10.2187C22.7685 8.57579 21.0952 7.50662 20.1951 8.23331C18.3627 9.70581 18.2422 12.7204 18.2422 12.7204" stroke="white" stroke-miterlimit="10"/>
</svg>
