<svg width="28" height="17" viewBox="0 0 28 17" fill="none" xmlns="http://www.w3.org/2000/svg">
<path d="M23.7063 10.7296C23.8707 10.9338 24.2639 11.3342 24.886 11.9308L24.915 11.96C25.9911 12.8955 26.9246 13.9852 27.6854 15.194C27.7209 15.2538 27.7532 15.3155 27.7821 15.3788C27.83 15.5044 27.864 15.6348 27.8836 15.7678C27.9186 15.928 27.9186 16.094 27.8836 16.2542C27.8195 16.431 27.6894 16.5757 27.521 16.6578C27.2554 16.7947 26.9585 16.8584 26.6604 16.8426L22.9327 16.901C22.6586 16.9469 22.3774 16.9218 22.1156 16.828C21.8511 16.751 21.5963 16.6433 21.3565 16.5071L21.0665 16.332C20.7162 16.064 20.3923 15.7627 20.0995 15.4323C19.7127 15.0108 19.3807 14.6331 19.1035 14.2992C18.8441 13.9786 18.5452 13.6926 18.2139 13.4481C18.1052 13.3464 17.9738 13.2725 17.8307 13.2327C17.6876 13.1929 17.5371 13.1884 17.3919 13.2195L17.2759 13.273C17.1849 13.3334 17.102 13.4053 17.0293 13.487C16.9045 13.6154 16.7986 13.7612 16.7151 13.9198C16.592 14.1689 16.5041 14.4341 16.454 14.7077C16.3775 15.0802 16.345 15.4606 16.3573 15.8408C16.358 15.9772 16.3401 16.113 16.3041 16.2444C16.281 16.3404 16.2435 16.4322 16.1929 16.5168L16.1349 16.5897C15.9257 16.7898 15.6499 16.9042 15.3613 16.9107H13.6933C12.9757 16.9462 12.2572 16.8641 11.5659 16.6675C10.8908 16.4925 10.2408 16.231 9.63198 15.8894C9.11628 15.591 8.61603 15.2664 8.13317 14.9168C7.77064 14.6631 7.42797 14.3818 7.10817 14.0755L6.74556 13.7253C6.64886 13.628 6.5151 13.4822 6.34426 13.2876C6.17343 13.0931 5.82693 12.6424 5.30477 11.9357C4.77938 11.2418 4.26527 10.5043 3.76244 9.72292C3.25961 8.94156 2.66815 7.91057 1.98804 6.62993C1.31761 5.3493 0.684238 4.02165 0.0879365 2.64699C0.0364098 2.52176 0.00696085 2.38846 0.000909044 2.25307C-0.00398898 2.17284 0.0109615 2.09264 0.044423 2.01964L0.102441 1.9321C0.211688 1.82638 0.343085 1.74661 0.486987 1.69864C0.630889 1.65067 0.783644 1.63573 0.934039 1.6549L4.92281 1.62572C5.03729 1.64545 5.1492 1.67807 5.25642 1.72299C5.33901 1.75459 5.41705 1.79711 5.48849 1.84943L5.56101 1.8932C5.72504 2.01441 5.84686 2.1846 5.90912 2.37951C6.10252 2.86907 6.32654 3.37485 6.58117 3.89683C6.83581 4.41881 7.03565 4.81759 7.1807 5.09317L7.41277 5.51626C7.65963 6.038 7.934 6.54611 8.2347 7.03844C8.44252 7.39113 8.6786 7.72618 8.94059 8.04026C9.11921 8.25162 9.32208 8.44098 9.54495 8.60438C9.6831 8.71803 9.85104 8.78898 10.0284 8.80864C10.1623 8.80866 10.2951 8.78393 10.4201 8.73569C10.449 8.71665 10.4736 8.69181 10.4926 8.66274C10.5572 8.55952 10.6153 8.45232 10.6666 8.34177C10.7671 8.12301 10.834 7.89017 10.8649 7.6512C10.91 7.36914 10.9567 6.9736 11.0051 6.46459C11.054 5.85443 11.054 5.24132 11.0051 4.63117C10.9897 4.27162 10.9461 3.91387 10.8745 3.56127C10.8293 3.32734 10.7546 3.10018 10.6521 2.88529L10.5651 2.71021C10.4142 2.52599 10.2283 2.3739 10.0183 2.26284C9.80825 2.15178 9.57829 2.08398 9.34188 2.06341C9.21618 2.04396 9.24035 1.92724 9.41441 1.71326C9.57048 1.53523 9.7572 1.38696 9.96558 1.27557C10.4813 1.02269 11.6417 0.905971 13.4467 0.925424C14.1073 0.920863 14.7667 0.984416 15.4145 1.11509C15.585 1.15582 15.7481 1.22309 15.898 1.31448C16.0304 1.39843 16.1349 1.5204 16.1977 1.66463C16.2672 1.8204 16.3191 1.98353 16.3525 2.15095C16.3919 2.37074 16.4097 2.5939 16.4056 2.8172C16.4056 3.09926 16.4056 3.36836 16.4056 3.62449C16.4056 3.88062 16.3927 4.22428 16.367 4.65548V7.1892C16.3698 7.38803 16.3876 7.58636 16.4201 7.78251C16.4367 7.99273 16.4942 8.19762 16.5894 8.38554C16.6667 8.53169 16.7799 8.65556 16.9181 8.74542L17.1647 8.80377C17.2517 8.82323 17.3774 8.76973 17.5418 8.64329C17.7382 8.49441 17.924 8.3319 18.0978 8.15697C18.3768 7.85409 18.6306 7.5288 18.8569 7.18434C19.1567 6.74016 19.479 6.21494 19.8239 5.60867C20.4256 4.55107 20.946 3.44879 21.3807 2.31143C21.4162 2.21879 21.465 2.13193 21.5258 2.05368C21.5696 1.99295 21.6236 1.9403 21.6853 1.89806L21.7433 1.85429L21.8159 1.81539L22.0044 1.77162C22.0993 1.74532 22.1996 1.74532 22.2945 1.77162L26.4912 1.74244C26.8016 1.69084 27.1192 1.70409 27.4243 1.78134C27.5954 1.8142 27.7523 1.89907 27.874 2.0245L27.961 2.1704C28.1834 2.79613 27.4549 4.23239 25.7756 6.47918C25.5435 6.80339 25.2212 7.21838 24.8086 7.72415C24.3059 8.3163 23.8667 8.96019 23.4984 9.6451C23.4377 9.82864 23.425 10.0248 23.4614 10.2147C23.4978 10.4046 23.5821 10.5819 23.7063 10.7296Z" fill="white"/>
</svg>
