<svg width="28" height="17" viewBox="0 0 28 17" fill="none" xmlns="http://www.w3.org/2000/svg">
<path d="M23.7063 10.7295C23.8707 10.9337 24.2639 11.3341 24.886 11.9307L24.915 11.9599C25.9911 12.8954 26.9246 13.9851 27.6854 15.1939C27.7209 15.2537 27.7532 15.3154 27.7821 15.3787C27.83 15.5042 27.864 15.6347 27.8836 15.7677C27.9186 15.9279 27.9186 16.0938 27.8836 16.254C27.8195 16.4309 27.6894 16.5756 27.521 16.6577C27.2554 16.7945 26.9585 16.8583 26.6604 16.8425L22.9327 16.9008C22.6586 16.9468 22.3774 16.9217 22.1156 16.8279C21.8511 16.7509 21.5963 16.6432 21.3565 16.5069L21.0665 16.3319C20.7162 16.0639 20.3923 15.7626 20.0995 15.4322C19.7127 15.0107 19.3807 14.633 19.1035 14.299C18.8441 13.9785 18.5452 13.6925 18.2139 13.448C18.1052 13.3462 17.9738 13.2723 17.8307 13.2326C17.6876 13.1928 17.5371 13.1883 17.3919 13.2194L17.2759 13.2729C17.1849 13.3333 17.102 13.4052 17.0293 13.4869C16.9045 13.6153 16.7986 13.761 16.7151 13.9197C16.592 14.1688 16.5041 14.434 16.454 14.7076C16.3775 15.0801 16.345 15.4605 16.3573 15.8407C16.358 15.977 16.3401 16.1129 16.3041 16.2443C16.281 16.3402 16.2435 16.4321 16.1929 16.5167L16.1349 16.5896C15.9257 16.7896 15.6499 16.9041 15.3613 16.9106H13.6933C12.9757 16.9461 12.2572 16.864 11.5659 16.6674C10.8908 16.4924 10.2408 16.2309 9.63198 15.8893C9.11628 15.5909 8.61603 15.2663 8.13317 14.9167C7.77064 14.663 7.42797 14.3817 7.10817 14.0753L6.74556 13.7252C6.64886 13.6279 6.5151 13.482 6.34426 13.2875C6.17343 13.093 5.82693 12.6423 5.30477 11.9355C4.77938 11.2417 4.26527 10.5041 3.76244 9.72279C3.25961 8.94144 2.66815 7.91045 1.98804 6.62981C1.31761 5.34917 0.684238 4.02153 0.0879365 2.64687C0.0364098 2.52164 0.00696085 2.38834 0.000909044 2.25295C-0.00398898 2.17272 0.0109615 2.09252 0.044423 2.01952L0.102441 1.93198C0.211688 1.82626 0.343085 1.74649 0.486987 1.69852C0.630889 1.65055 0.783644 1.63561 0.934039 1.65478L4.92281 1.6256C5.03729 1.64532 5.1492 1.67795 5.25642 1.72286C5.33901 1.75447 5.41705 1.79699 5.48849 1.84931L5.56101 1.89307C5.72504 2.01429 5.84686 2.18448 5.90912 2.37939C6.10252 2.86895 6.32654 3.37472 6.58117 3.8967C6.83581 4.41869 7.03565 4.81747 7.1807 5.09305L7.41277 5.51614C7.65963 6.03788 7.934 6.54599 8.2347 7.03832C8.44252 7.39101 8.6786 7.72606 8.94059 8.04013C9.11921 8.2515 9.32208 8.44086 9.54495 8.60426C9.6831 8.71791 9.85104 8.78886 10.0284 8.80852C10.1623 8.80854 10.2951 8.78381 10.4201 8.73557C10.449 8.71652 10.4736 8.69169 10.4926 8.66262C10.5572 8.5594 10.6153 8.4522 10.6666 8.34165C10.7671 8.12289 10.834 7.89004 10.8649 7.65108C10.91 7.36902 10.9567 6.97348 11.0051 6.46446C11.054 5.85431 11.054 5.24119 11.0051 4.63104C10.9897 4.2715 10.9461 3.91375 10.8745 3.56115C10.8293 3.32722 10.7546 3.10006 10.6521 2.88516L10.5651 2.71009C10.4142 2.52587 10.2283 2.37378 10.0183 2.26272C9.80825 2.15166 9.57829 2.08386 9.34188 2.06329C9.21618 2.04383 9.24035 1.92712 9.41441 1.71314C9.57048 1.5351 9.7572 1.38684 9.96558 1.27545C10.4813 1.02257 11.6417 0.905849 13.4467 0.925302C14.1073 0.920741 14.7667 0.984294 15.4145 1.11497C15.585 1.1557 15.7481 1.22297 15.898 1.31436C16.0304 1.39831 16.1349 1.52028 16.1977 1.66451C16.2672 1.82028 16.3191 1.9834 16.3525 2.15082C16.3919 2.37062 16.4097 2.59378 16.4056 2.81708C16.4056 3.09914 16.4056 3.36824 16.4056 3.62437C16.4056 3.88049 16.3927 4.22416 16.367 4.65536V7.18908C16.3698 7.38791 16.3876 7.58624 16.4201 7.78238C16.4367 7.9926 16.4942 8.1975 16.5894 8.38542C16.6667 8.53157 16.7799 8.65544 16.9181 8.7453L17.1647 8.80365C17.2517 8.82311 17.3774 8.76961 17.5418 8.64317C17.7382 8.49428 17.924 8.33178 18.0978 8.15685C18.3768 7.85397 18.6306 7.52867 18.8569 7.18421C19.1567 6.74004 19.479 6.21482 19.8239 5.60854C20.4256 4.55095 20.946 3.44866 21.3807 2.31131C21.4162 2.21867 21.465 2.13181 21.5258 2.05356C21.5696 1.99283 21.6236 1.94018 21.6853 1.89794L21.7433 1.85417L21.8159 1.81526L22.0044 1.7715C22.0993 1.7452 22.1996 1.7452 22.2945 1.7715L26.4912 1.74232C26.8016 1.69072 27.1192 1.70397 27.4243 1.78122C27.5954 1.81408 27.7523 1.89895 27.874 2.02438L27.961 2.17028C28.1834 2.796 27.4549 4.23226 25.7756 6.47905C25.5435 6.80327 25.2212 7.21826 24.8086 7.72403C24.3059 8.31618 23.8667 8.96007 23.4984 9.64498C23.4377 9.82852 23.425 10.0247 23.4614 10.2146C23.4978 10.4045 23.5821 10.5818 23.7063 10.7295Z" fill="#9791A0"/>
</svg>
