<svg width="36" height="36" viewBox="0 0 36 36" fill="none" xmlns="http://www.w3.org/2000/svg">
<circle cx="18" cy="18" r="18" fill="#D8AEAE"/>
<circle cx="18" cy="18" r="18" fill="#D8AEAE"/>
<circle cx="18" cy="18" r="18" fill="#D8AEAE"/>
<circle cx="18" cy="18" r="18" fill="#D8AEAE"/>
<path d="M10.7029 23.4444H9.44312V13.0222H20.6663V23.4444H15.8563" stroke="white" stroke-miterlimit="10"/>
<path d="M7 11H17.3833" stroke="white" stroke-miterlimit="10"/>
<path d="M13.2605 25C14.1038 25 14.7874 24.3036 14.7874 23.4445C14.7874 22.5854 14.1038 21.8889 13.2605 21.8889C12.4172 21.8889 11.7335 22.5854 11.7335 23.4445C11.7335 24.3036 12.4172 25 13.2605 25Z" stroke="white" stroke-miterlimit="10"/>
<path d="M24.4073 25C25.2506 25 25.9343 24.3036 25.9343 23.4445C25.9343 22.5854 25.2506 21.8889 24.4073 21.8889C23.564 21.8889 22.8804 22.5854 22.8804 23.4445C22.8804 24.3036 23.564 25 24.4073 25Z" stroke="white" stroke-miterlimit="10"/>
<path d="M27.0415 23.4445H28.5303V20.6445C28.5303 19.7111 28.2249 18.8556 26.7743 18.8556C25.3236 18.8556 25.3236 18.3111 25.3236 17.3778C25.3236 16.4445 25.1709 15.9778 24.2548 15.9778H21.6589" stroke="white" stroke-miterlimit="10"/>
<path d="M20.7427 23.4446H21.8115" stroke="white" stroke-miterlimit="10"/>
</svg>
