<svg width="36" height="36" viewBox="0 0 36 36" fill="none" xmlns="http://www.w3.org/2000/svg">
<circle cx="18" cy="18" r="18" fill="#D8AEAE"/>
<circle cx="18" cy="18" r="18" fill="#D8AEAE"/>
<circle cx="18" cy="18" r="18" fill="#D8AEAE"/>
<circle cx="18" cy="18" r="18" fill="#D8AEAE"/>
<path d="M23.0087 12.8424C23.0087 15.517 19.4339 20.4514 18.0044 22.8736C16.2169 20.107 13 15.517 13 12.8424C13 11.5581 13.5272 10.3264 14.4657 9.41831C15.4042 8.51018 16.6771 8 18.0044 8C19.3316 8 20.6045 8.51018 21.543 9.41831C22.4815 10.3264 23.0087 11.5581 23.0087 12.8424V12.8424Z" stroke="white" stroke-miterlimit="10"/>
<path d="M19.5086 14.9869C18.984 15.3183 18.3601 15.4709 17.7358 15.4205C17.1114 15.3701 16.5223 15.1195 16.0618 14.7085C15.6012 14.2976 15.2955 13.7497 15.1931 13.1516C15.0907 12.5535 15.1975 11.9395 15.4964 11.4067C15.7954 10.874 16.2695 10.453 16.8437 10.2104C17.4178 9.96786 18.0592 9.9176 18.6662 10.0676C19.2733 10.2176 19.8112 10.5593 20.1949 11.0385C20.5786 11.5178 20.786 12.1072 20.7844 12.7134" stroke="white" stroke-miterlimit="10"/>
<path d="M13.6066 26H22.7054" stroke="white" stroke-miterlimit="10"/>
</svg>
