<svg width="36" height="36" viewBox="0 0 36 36" fill="none" xmlns="http://www.w3.org/2000/svg">
<circle cx="18" cy="18" r="18" fill="#D8AEAE"/>
<circle cx="18" cy="18" r="18" fill="#D8AEAE"/>
<circle cx="18" cy="18" r="18" fill="#D8AEAE"/>
<circle cx="18" cy="18" r="18" fill="#D8AEAE"/>
<path d="M25.0735 12.8755H11.411V25.0449H25.0735V12.8755Z" stroke="white" stroke-miterlimit="10"/>
<path d="M10 28H20.7693" stroke="white" stroke-miterlimit="10"/>
<path d="M17.17 12.8755V25.0449" stroke="white" stroke-miterlimit="10"/>
<path d="M19.2598 12.8755V20.6987" stroke="white" stroke-miterlimit="10"/>
<path d="M17.9901 12.7207C17.9901 12.7207 14.6934 12.2669 14.0102 10.2172C13.4621 8.57436 15.1354 7.50519 16.0355 8.23188C17.8695 9.70612 17.9901 12.7207 17.9901 12.7207Z" stroke="white" stroke-miterlimit="10"/>
<path d="M21.5213 11.2879C21.834 11.0009 22.0745 10.6331 22.2205 10.2187C22.7686 8.57583 21.0954 7.50665 20.1953 8.23334C18.3629 9.70584 18.2423 12.7204 18.2423 12.7204" stroke="white" stroke-miterlimit="10"/>
</svg>
