<svg width="36" height="36" viewBox="0 0 36 36" fill="none" xmlns="http://www.w3.org/2000/svg">
<circle cx="18" cy="18" r="18" fill="#D8AEAE"/>
<circle cx="18" cy="18" r="18" fill="#D8AEAE"/>
<circle cx="18" cy="18" r="18" fill="#D8AEAE"/>
<circle cx="18" cy="18" r="18" fill="#D8AEAE"/>
<path d="M21.6875 24.2254C20.2877 25.1774 18.6193 25.6213 16.9468 25.4866C15.2742 25.352 13.6931 24.6466 12.4541 23.4822C11.2152 22.3178 10.3892 20.761 10.1072 19.0587C9.8252 17.3563 10.1033 15.6058 10.8973 14.0845C11.6914 12.5633 12.956 11.3584 14.4908 10.6608C16.0255 9.96328 17.7425 9.81295 19.3697 10.2337C20.9968 10.6544 22.441 11.6222 23.4732 12.9835C24.5055 14.3449 25.0668 16.0219 25.0681 17.7488" stroke="white" stroke-miterlimit="10"/>
<path d="M22.9432 16.1582L24.9716 18.2461L27 16.1582" stroke="white" stroke-miterlimit="10"/>
</svg>
